<svg xmlns="http://www.w3.org/2000/svg" viewBox="0 0 200 200" width="100%" height="100%">
  <g>
    <animateTransform 
      attributeName="transform" 
      type="translate" 
      values="0,5; 0,-8; 0,5" 
      dur="2s" 
      repeatCount="indefinite" />
    
    <g>
      <animateTransform 
        attributeName="transform" 
        type="rotate" 
        values="-30 65 100; 50 65 100; -30 65 100" 
        dur="0.25s" 
        repeatCount="indefinite" />
      <path d="M 65,100 C 30,70 5,90 15,110 C 25,130 50,120 65,115 Z" fill="#ffffff" stroke="#333333" stroke-width="4" stroke-linejoin="round"/>
    </g>

    <g>
      <animateTransform 
        attributeName="transform" 
        type="rotate" 
        values="30 135 100; -50 135 100; 30 135 100" 
        dur="0.25s" 
        repeatCount="indefinite" />
      <path d="M 135,100 C 170,70 195,90 185,110 C 175,130 150,120 135,115 Z" fill="#ffffff" stroke="#333333" stroke-width="4" stroke-linejoin="round"/>
    </g>

    <g>
      <animateTransform 
        attributeName="transform" 
        type="rotate" 
        values="4 100 140; -4 100 140; 4 100 140" 
        dur="2.5s" 
        repeatCount="indefinite"/>
      <path d="M 85,145 L 85,160 M 85,160 L 75,165 M 85,160 L 95,165" stroke="#FFA500" stroke-width="4" stroke-linecap="round" fill="none"/>
      <path d="M 115,145 L 115,160 M 115,160 L 105,165 M 115,160 L 125,165" stroke="#FFA500" stroke-width="4" stroke-linecap="round" fill="none"/>
    </g>

    <ellipse cx="100" cy="100" rx="48" ry="52" fill="#ffffff" stroke="#333333" stroke-width="4" />
    
    <path d="M 95,48 Q 85,25 100,32 Q 115,15 105,48" fill="none" stroke="#333333" stroke-width="4" stroke-linecap="round"/>

    <circle cx="80" cy="85" r="16" fill="#ffffff" stroke="#333333" stroke-width="3"/>
    <circle cx="85" cy="85" r="7" fill="#333333" />
    <circle cx="83" cy="82" r="2.5" fill="#ffffff" />
    
    <circle cx="120" cy="85" r="16" fill="#ffffff" stroke="#333333" stroke-width="3"/>
    <circle cx="115" cy="85" r="7" fill="#333333" />
    <circle cx="117" cy="82" r="2.5" fill="#ffffff" />

    <circle cx="64" cy="108" r="8" fill="#FF9999" opacity="0.6"/>
    <circle cx="136" cy="108" r="8" fill="#FF9999" opacity="0.6"/>

    <path d="M 90,102 L 110,102 L 100,118 Z" fill="#FFA500" stroke="#333333" stroke-width="3" stroke-linejoin="round" />
  </g>
</svg>