<svg version="1.2" xmlns="http://www.w3.org/2000/svg" viewBox="0 0 419 500" width="419" height="500"><style>.a{fill:#ffd73e}.b{fill:#ee4e36}.c{fill:#fff}.d{fill:#ee7277}</style><path  d="m290 13.3q-0.3 0-0.4 0-0.3 0-0.5 0.1-0.6 0.1-1 0.5c-1.2 1.2-1.9 3.2-2.6 8.4q0 0 0 0.1-0.2 2.2-0.5 5.3c-0.2 1.9-0.2 8.5-0.3 16.6q0 7.1 0.1 15c0.1 10.4 0.2 20.6 0.4 25.6q0.3 6.3 0.7 12.4 0.1 2.2 0.2 4 0.1 0.9 0.2 1.8c1.4 22.5 3.5 41.7 5.3 47.6q0 0 0 0 0 0.3 0 0.4c0 0.4-0.4 0.3-1.8 0-9.6-2.1-31.2-2.1-50 0.1-13.7 1.6-34.2 6.6-41.2 10.2l-0.6 0.3q-1 0.3-1.6 0.5-0.7 0.2-1.2 0.1l-1.4-1c-3.3-2.2-10-5.9-17.1-9.4q-1.3-0.7-2.4-1.2-3.6-1.8-7.5-3.6-3.6-1.7-6.7-3c-30.4-12.9-67.5-22.2-98.4-24.8-3.4-0.2-7.7-0.4-11.9-0.4q-1.6-0.1-2.9-0.1-2.4 0-4.6 0.2-1.4 0-2.7 0.1c-3.5 0.1-6.2 0.5-6.9 0.9q-0.8 0.3-1.3 0.7-1.2 0.8-1.2 1.8 0 0.4 0.2 1 0.2 0.5 0.5 1.2c0.6 1.1 2.4 3.1 4.7 5.5q2.8 3 6.2 6.1c2.1 1.9 4.2 3.6 5.8 4.8 5.1 3.8 15.8 11.1 16.3 11.1 0.2 0 1.1 0.6 2 1.2 2 1.4 6.3 3.9 11.7 6.9 1.4 0.8 4.6 2.5 8.5 4.5 11.7 6.2 25.5 13 33.6 16.5q3.9 1.6 8.1 3.4 2.4 1 6.1 2.5c11.5 4.6 22.6 8.8 27.3 10.1 1.7 0.5 2.5 0.9 2.8 1.3q-0.1 0.4-0.3 1.4c-2.2 6.5-4.9 23.7-4.9 32.3q0 0.7 0 1.4-0.1 0.3-0.1 0.5-0.2 1.4-0.5 1.7-0.5-0.2-1.8-0.7-1.5-0.6-3.7-1.6c-2.8-1.3-5.7-2.6-6.5-2.8-0.8-0.3-2.6-1-4.1-1.7q-5.2-2.3-18.6-7c-24.8-8.5-53.4-15.2-78-18.1-2.8-0.4-7.3-0.7-12-1.1q-5.4-0.4-10.6-0.6-2.5-0.1-4.1-0.1c-2.6-0.1-4.4-0.1-4.7 0q-0.6 0.2-0.8 1-0.1 0.3-0.1 0.8 0 0 0 0 0 0.4 0.2 1.2 0.4 2.2 1.9 6.7c4.3 12.8 11.1 29.3 18.3 44.9 0.2 0.7 1 2.2 1.9 4.1 6 12.9 12.1 24.7 17 32.8 1.7 2.9 2.7 4.6 3.6 5.6q0.4 0.5 0.5 0.6 0.1 0 0.3 0c1.5 0.9 3.5 0.7 8.6 0.4q1.2 0 3.4-0.1 4.3 0.1 9.4 0.1 4.5 0.1 8.8 0.2c11.3 0.2 23.5 0.5 27.6 0.9 1.2 0.1 4.6 0.3 7.6 0.5q1 0.1 1.9 0.2 2.7 0.4 3.3 0.7-0.1 0.3-0.2 1.1-0.2 0.8-0.5 1.9c-4.7 15.1-15.1 51.4-15.1 52.5q0 0.2 0.1 0.3-0.1 0.1-0.1 0.2 0 0.3 0.7 0.6c1.1 0.9 3.7 2 9.7 4.2 10 3.5 22.6 8.2 25.6 9.5q0.1 0.1 0.3 0.2c0.7 0.3 1.2 0.8 1.6 1.6q0.3 0.5 0.5 1.1c0.3 1.1 1.1 3.3 1.7 4.9q0.1 0.3 0.2 0.5 0.5 1.9 0.6 2.8-0.1 0.6-0.3 1.2c-0.6 1.4-1.1 1.6-3.8 1.9q-2.6 0.4-5.3 1.4-1.7 0.5-3.3 1.4c-2.9 1.5-5.4 3.4-6.4 5.2q-1.3 1-1.8 1.3c-0.5-0.5-1.2-1.4-1.9-2.5-0.9-1.3-3-3.8-5.1-6q-0.4-0.5-0.8-0.9-0.2-0.3-0.4-0.5c-3.9-3.9-4.7-4.5-6.3-4.5q0 0-0.1-0.1 0 0 0 0.1 0-0.1 0-0.1 0 0.1-0.1 0.1 0 0 0-0.1-0.1 0.1-0.1 0.1-3.3 0-3.9 4.1c-0.2 1-0.6 2.1-1.1 2.7q-0.2 0.2-0.4 0.5c-1 1.1-1.7 3.4-1.8 6.6q-0.1 1-0.2 2.2 0.1 1.5 0.2 3.1c0.3 7.1 1.9 16.3 4.5 25.9 0.8 2.7 1.8 6.2 2.2 7.8 1.2 4.5 3.4 10.6 5.9 16.6 0.7 2 2.1 5.1 3.7 8.5 2 4.3 4 8.2 5.7 10.9 5.1 8.3 9.1 12.8 13.2 14.6 2.8 1.2 4.6 1 6.3-0.7l1.2-1.2 3.6 1.2q0.2 0 0.3 0.1 1.9 0.8 4.4 1.2 1.3 0.2 2.2 0.4c4.2 0.7 23.2 0.7 31.8 0 3.6-0.3 9.5-0.7 13.2-0.9l6.7-0.3-0.4 2.2q-0.2 2 0.5 3 0.6 1.4 2.5 1.4 1.8 0.1 4.6-1.1l2.8-1.2 1.7 2q0.5 0.7 1.1 1c0.6 0.6 1.1 1 1.2 1 0.7 0 2.7-1.2 3.9-2.3l0.7-0.6q0.3-0.2 0.6-0.2 0.1 0 0.3 0l1.4 1.4c2 2 2.6 1.9 6.8-0.8l2.7-1.9 0.4 0.4 1.5 1.8c2.6 3.3 4.3 3.1 8.4-0.9l2.4-2.4q0.6-0.5 1-0.6l2.3 0.6q2 0.5 3.1 0.8l1.9 0.6 1.4-0.7q0.8-0.3 2-0.9l2.9-1.5 3.1 3q0.1 0.1 0.2 0.2 0.9 1 1.8 1.7c3.4 2.6 5.3 2.3 6.3-1q0.1-0.5 0.3-0.8 0.3-1.1 0.5-1.3c0.2 0 1.9 1 3.8 2.1 2.1 1.2 4.2 2.2 4.6 2.2 1 0 2.8-1.6 2.8-2.6q0.3-0.4 0.7-0.4 0.1 0 0.2 0c0.6 0.3 2.3 0.5 3.9 0.7 2.8 0.3 2.9 0.3 3.5-1.4q0.3-0.9 0.7-1.3 0 0 0 0 0.5-0.3 1.4-0.4 0.1 0 0.3 0 0.3 0 0.7 0 0.1 0 0.3 0 0.3 0 0.5-0.1 0.1 0 0.3 0c2.4-0.2 3.9-1.2 3.9-2.9 0-0.7 0-1 3.8-1.1l4.6 0.1c4.9 0.2 10.9 0 17.2-0.3 8.3-0.3 14.3-0.9 24.7-2.3l6.4-0.9h1 0.2l1.2 1.4q2 2.2 4.4 2.7 0.1 0 0.1 0 2.2 0.4 4.9-0.7c1.9-0.8 4.4-3 6.9-6.2q2.3-2.8 4.5-6.4 2.8-4.5 5.1-9.5c7.8-17.1 12.8-39.2 13.6-54.7 0.2-2.8 0.3-4.9 0.2-5.3q0-0.2-0.1-0.7c-0.2-6.2-1.4-10.8-3.6-12.6-0.6-0.5-1.5-1.6-2-2.7q-0.1-0.8-1-1.7c-0.4-0.6-0.9-0.9-1.8-1q-0.3-0.2-0.6-0.2-0.1 0-0.1 0-0.1 0-0.2-0.1 0 0 0 0.1-0.1 0-0.1-0.1-0.3 0.1-0.7 0.2c-0.9 0.1-1.6 0.5-2.7 1.7q-0.5 0.6-1.1 1-0.4 0.3-0.8 0.6-0.4 0.2-0.7 0.1-0.9-0.3-2.3 1.2-0.9 0.9-2.1 2.7-1.5 2.3-3 5.5c-1.5 3-2.6 5.2-3 6q-0.3 0.4-0.4 0.6c-0.3-0.1-1.8-1.5-3.6-3.2-6.2-6.2-12.5-10.5-16.9-11.6-1-0.2-1.8-1.2-2.8-3.2-0.8-1.6-3.2-6.6-5.5-11.1-7.8-15.4-12.3-29.2-13.3-41.4-0.2-1.9-0.5-4.6-0.6-5.8q-0.1-0.8-0.1-1.3 0.1-0.8 0.4-1.4c0.5-0.9 1.6-2 3.6-4.2 2.4-2.5 5.2-5.6 6.2-7 1.1-1.3 2.1-2.6 2.3-2.7 1-0.9 3.5-5 6.1-9.5q1.9-3.3 3.4-6.3c1-2.1 1.9-4 2.4-5.3 1.3-3.7 2.4-10.3 2.2-14.6-0.2-7.9-1.4-13.2-6.5-27.3-4.9-13.7-6.3-18.6-9.4-33.1-2.2-10.8-3.9-16.2-7.4-24.6l-2.7-6.3q-0.1-1.2-0.2-3.1v-0.8q0-1.6 0-3.8 0-4.1-0.2-8.8 0-4.3-0.2-8.1c-0.8-20-3.2-36-8.4-57-7.4-30.5-21.6-62.5-35.5-79.9q-4.1-5.1-6.7-6.5-0.7-0.5-1.2-0.5zm-123.6 299.2l4.4 8.8-8.3 33.7-17.7-8.8z"/><path class="a" d="m228.9 493.8q-0.2 0-0.3 0 0.1 0 0.3 0z"/><path class="a" d="m252.1 493.3q-0.6 0.3-1.1 0.5 0.5-0.2 1.1-0.5z"/><path class="a" d="m239.3 493.1q-0.7 0.4-1.2 0.4 0.5 0 1.2-0.4z"/><path class="a" d="m236.5 493q0.3 0.3 0.6 0.4-0.3-0.1-0.6-0.4z"/><path class="a" d="m247.8 492.7q0.5 0.4 0.9 0.7-0.4-0.3-0.9-0.7z"/><path class="a" d="m292.6 492.7q0.2 0 0.3 0 0.1 0 0.2 0-0.1 0-0.2 0-0.1 0-0.3 0z"/><path class="a" d="m294.2 492.1q-0.5 0.4-0.9 0.5 0.4-0.1 0.9-0.5z"/><path class="a" d="m218.2 492.1q-0.5 0-1 0-0.2 0-0.4 0 0.2 0 0.4 0 0.5 0 1 0z"/><path class="a" d="m219.9 491.7q-0.6 0.2-1.2 0.3 0.6-0.1 1.2-0.3z"/><path class="a" d="m221.1 491.3q-0.6 0.3-1.2 0.4 0.6-0.1 1.2-0.4z"/><path class="a" d="m233.5 490.7q-0.2 0.1-0.3 0.2l-0.7 0.6c-0.6 0.6-1.4 1.1-2.1 1.6 0.7-0.5 1.5-1 2.1-1.6l0.7-0.6q0.1-0.1 0.3-0.2z"/><path class="a" d="m233.8 490.7q-0.1 0-0.3 0 0.2 0 0.3 0 0.1 0 0.3 0-0.2 0-0.3 0z"/><path class="a" d="m302.9 490.5q-0.3 0.1-0.8 0 0.5 0.1 0.8 0z"/><path class="a" d="m303.2 490.3q-0.1 0.1-0.3 0.2 0.2-0.1 0.3-0.2z"/><path class="a" d="m303.5 490.1q-0.1 0.1-0.1 0.1 0 0 0.1-0.1z"/><path class="a" d="m295.9 489.9q-0.1 0.1-0.2 0.2 0 0.1-0.1 0.2 0.1-0.1 0.1-0.2 0.1-0.1 0.2-0.2z"/><path class="a" d="m297.2 489.9c0.8 0.2 2 0.4 3.1 0.5-1.1-0.1-2.3-0.3-3.1-0.5z"/><path class="a" d="m224.6 489.8l-2.8 1.2q-0.3 0.1-0.7 0.3 0.4-0.2 0.7-0.3z"/><path class="a" d="m245 489.4l-2.7 1.9q-0.8 0.5-1.4 0.9 0.6-0.4 1.4-0.9z"/><path class="a" d="m283.5 491.1q-0.3 0.8-0.7 1.3 0.4-0.5 0.7-1.3z"/><path class="a" d="m284.3 488.8q-0.2 0.4-0.3 0.9-0.2 0.3-0.3 0.8-0.1 0.3-0.2 0.6 0.1-0.3 0.2-0.6 0.1-0.5 0.3-0.8 0.1-0.5 0.3-0.9z"/><path class="a" d="m284.5 488.4q0 0-0.1 0.2 0.1-0.2 0.1-0.2z"/><path class="a" d="m304.3 488.2q-0.1 0.3-0.3 0.8-0.1 0.3-0.2 0.5 0.1-0.2 0.2-0.5 0.2-0.5 0.3-0.8z"/><path class="a" d="m304.7 487.7q-0.2 0.2-0.4 0.5 0.2-0.3 0.4-0.5z"/><path class="a" d="m306.1 487.3q-0.7 0.1-1.1 0.3 0.4-0.2 1.1-0.3z"/><path class="a" d="m307 487.3q-0.3 0-0.6 0-0.2 0-0.3 0 0.1 0 0.3 0 0.3 0 0.6 0z"/><path class="a" d="m309 487.1q-0.4 0.1-0.8 0.1-0.2 0-0.3 0 0.1 0 0.3 0 0.4 0 0.8-0.1z"/><path class="a" d="m254.6 491.4q-0.8 0.7-1.4 1.2 0.6-0.5 1.4-1.2z"/><path class="a" d="m258.3 487.9q-0.3 0.2-0.6 0.4l-2.4 2.4q-0.4 0.4-0.7 0.7 0.3-0.3 0.7-0.7l2.4-2.4q0.3-0.2 0.6-0.4z"/><path class="a" d="m272.3 486.6l-2.9 1.5q-1.2 0.6-2 0.9l-1.4 0.7-1.9-0.6q-1.1-0.3-3.1-0.8l-2.3-0.6q-0.2 0.1-0.4 0.2 0.2-0.1 0.4-0.2l2.3 0.6q2 0.5 3.1 0.8l1.9 0.6 1.4-0.7q0.8-0.3 2-0.9z"/><path class="a" d="m311.3 486.1q-0.3 0.3-0.8 0.6 0.5-0.3 0.8-0.6z"/><path class="a" d="m146.8 486.4q0.5 0 0.9 0.1-0.4-0.1-0.9-0.1z"/><path class="a" d="m146 486.1q0.5 0.2 0.8 0.3-0.3-0.1-0.8-0.3z"/><path class="a" d="m163.9 486.9q1.1 0 2.8 0.1-1.7-0.1-2.8-0.1z"/><path class="a" d="m159.7 486.1q0.4 0.1 1 0.2 1.3 0.2 2.2 0.4 0.4 0.1 1 0.2-0.6-0.1-1-0.2-0.9-0.2-2.2-0.4-0.6-0.1-1-0.2z"/><path class="a" d="m201.3 486.2c-2.4 0.2-4.8 0.3-6.6 0.5q-1.7 0.2-3.7 0.2 2 0 3.7-0.2c1.8-0.2 4.2-0.3 6.6-0.5z"/><path class="a" d="m214.6 485.4l-6.7 0.4c-1.8 0.1-4.2 0.2-6.6 0.4 2.4-0.2 4.8-0.3 6.6-0.4z"/><path class="a" d="m143.4 484.9q0.8 0.5 1.5 0.8-0.7-0.3-1.5-0.8z"/><path class="a" d="m312.1 484q0 0.2 0 0.3 0 0.2 0 0.3 0-0.1 0-0.3 0-0.1 0-0.3z"/><path class="a" d="m149.2 486.3q-0.4 0.1-0.7 0.1 0.3 0 0.7-0.1z"/><path class="a" d="m150.9 485.3q-0.8 0.7-1.7 1 0.9-0.3 1.7-1z"/><path class="a" d="m152.4 483.8l-1.2 1.2q-0.1 0.1-0.3 0.3 0.2-0.2 0.3-0.3l1.2-1.2 3.6 1.2q0.2 0 0.3 0.1-0.1-0.1-0.3-0.1z"/><path class="a" d="m375.7 483.9q1.1 0.2 2.4 0-1.3 0.2-2.4 0z"/><path class="a" d="m375 483.7q0.3 0.1 0.6 0.2 0.1 0 0.1 0 0 0-0.1 0-0.3-0.1-0.6-0.2z"/><path class="a" d="m312.3 483.7q-0.1 0-0.1 0 0 0 0.1 0z"/><path class="a" d="m313.7 483.3q-1.1 0.1-1.4 0.4 0.3-0.3 1.4-0.4z"/><path class="a" d="m315.9 483.2q-0.7 0-1.3 0 0.6 0 1.3 0l4.6 0.1q3.6 0.1 8.1 0-4.5 0.1-8.1 0z"/><path class="a" d="m380.6 483.2q-0.7 0.3-1.3 0.4 0.6-0.1 1.3-0.4z"/><path class="a" d="m340.8 482.9q-1.5 0-3.1 0.1-2.4 0.1-4.7 0.2 2.3-0.1 4.7-0.2 1.6-0.1 3.1-0.1z"/><path class="a" d="m372.2 482.2q0.8 0.7 1.6 1.1-0.8-0.4-1.6-1.1z"/><path class="a" d="m139.5 481.7q0.4 0.4 0.8 0.8-0.4-0.4-0.8-0.8z"/><path class="a" d="m355.3 481.6c-4.3 0.5-7.9 0.9-11.7 1.1 3.8-0.2 7.4-0.6 11.7-1.1z"/><path class="a" d="m383.8 481q-0.9 0.8-1.7 1.3 0.8-0.5 1.7-1.3z"/><path class="a" d="m369.8 479.8h-1l-6.4 0.9q-1.9 0.3-3.7 0.5 1.8-0.2 3.7-0.5l6.4-0.9z"/><path class="a" d="m388.6 475.5q-0.5 0.8-1.1 1.5-0.5 0.6-0.9 1.1 0.4-0.5 0.9-1.1 0.6-0.7 1.1-1.5z"/><path class="a" d="m409.4 419.1q-0.5 3.4-1.3 6.9 0.8-3.5 1.3-6.9z"/><path class="a" d="m410.8 400.4q0.1 0.5 0.1 0.7 0.1 0.3 0 1.7 0.1-1.4 0-1.7 0-0.2-0.1-0.7z"/><path class="a" d="m131.3 396.1q0.2 0.3 0.4 0.5-0.2-0.2-0.4-0.5z"/><path class="a" d="m410.2 394.3q0.1 0.8 0.2 1.7-0.1-0.9-0.2-1.7z"/><path class="a" d="m129.3 393.4q0.3 0.4 0.5 0.7 0.5 0.8 1 1.4-0.5-0.6-1-1.4-0.2-0.3-0.5-0.7z"/><path class="a" d="m408.7 389.7q0.3 0.6 0.6 1.2-0.3-0.6-0.6-1.2z"/><path class="a" d="m407.6 388.2q0.4 0.4 0.8 0.9-0.4-0.5-0.8-0.9z"/><path class="a" d="m362.5 385.7q0.2 0.3 0.4 0.5-0.2-0.2-0.4-0.5z"/><path class="a" d="m122.1 385.4q0.6 0.6 1.4 1.3 0.2 0.2 0.4 0.5 0.4 0.4 0.8 0.9 1.6 1.7 3 3.3-1.4-1.6-3-3.3-0.4-0.5-0.8-0.9-0.2-0.3-0.4-0.5-0.8-0.7-1.4-1.3z"/><path class="a" d="m405.1 384.7q0 0.2 0.1 0.4-0.1-0.2-0.1-0.4z"/><path class="a" d="m148.5 373.5q0.2 0.2 0.4 0.4-0.2-0.2-0.4-0.4z"/><path class="a" d="m129.9 366.3c5.3 2 10.4 3.9 13.9 5.2-3.5-1.3-8.6-3.2-13.9-5.2z"/><path class="a" d="m115.4 361q1.2 0.5 2.8 1.1-1.6-0.6-2.8-1.1z"/><path class="a" d="m113.5 360.1q0.7 0.4 1.9 0.9-1.2-0.5-1.9-0.9z"/><path class="a" d="m349.8 359.4q0.9 2.3 2 4.7-1.1-2.4-2-4.7z"/><path class="a" d="m111.9 359.1q0.1 0 0.2 0.1-0.1-0.1-0.2-0.1z"/><path class="a" d="m342.4 322.4q-0.1 0.1-0.2 0.3-0.2 0.3-0.2 0.7 0-0.4 0.2-0.7 0.1-0.2 0.2-0.3z"/><path class="a" d="m347.7 316.6q-0.9 1-1.9 1.9-0.7 0.8-1.3 1.5 0.6-0.7 1.3-1.5 1-0.9 1.9-1.9z"/><path class="a" d="m353.5 309.7q-0.6 0.8-1.5 1.8-0.4 0.6-1 1.3 0.6-0.7 1-1.3 0.9-1 1.5-1.8z"/><path class="a" d="m354.7 308.3q-0.3 0.3-0.4 0.5-0.2 0.1-0.8 0.9 0.6-0.8 0.8-0.9 0.1-0.2 0.4-0.5z"/><path class="a" d="m356 306.6q-0.8 1.1-1.3 1.7 0.5-0.6 1.3-1.7z"/><path class="a" d="m125.4 302.3q1.1 0.2 1.7 0.3-0.6-0.1-1.7-0.3z"/><path class="a" d="m110.3 301.1q2.8 0.1 4.4 0.3-1.6-0.2-4.4-0.3z"/><path class="a" d="m95.6 300.7c5.6 0.1 10.9 0.2 14.7 0.4-3.8-0.2-9.1-0.3-14.7-0.4z"/><path class="a" d="m67 300.3q-1 0-1.5 0-1.9 0.1-3.3 0.2 1.4-0.1 3.3-0.2 0.5 0 1.5 0z"/><path class="a" d="m68.9 300.2q-1.1 0-1.9 0.1 0.8-0.1 1.9-0.1 4.3 0.1 9.4 0.1 4.5 0.1 8.8 0.2-4.3-0.1-8.8-0.2-5.1 0-9.4-0.1z"/><path class="a" d="m56.5 299.7q0 0.1 0.1 0.2 0.1 0 0.3 0 0.1 0.1 0.3 0.2-0.2-0.1-0.3-0.2-0.2 0-0.3 0-0.1-0.1-0.1-0.2z"/><path class="a" d="m55.4 298.4q0.4 0.6 0.7 0.9-0.3-0.3-0.7-0.9z"/><path class="a" d="m361.3 297.7q-0.4 0.8-0.9 1.6-1 1.7-1.9 3.3 0.9-1.6 1.9-3.3 0.5-0.8 0.9-1.6z"/><path class="a" d="m363 294.5q-0.8 1.6-1.7 3.2 0.9-1.6 1.7-3.2z"/><path class="a" d="m364.5 291.5q-0.3 0.7-0.7 1.5-0.4 0.7-0.8 1.5 0.4-0.8 0.8-1.5 0.4-0.8 0.7-1.5z"/><path class="a" d="m365.7 288.8q-0.4 1.2-1.2 2.7 0.8-1.5 1.2-2.7z"/><path class="a" d="m366.7 286.2q-0.3 0.8-0.5 1.5-0.2 0.5-0.5 1.1 0.3-0.6 0.5-1.1 0.2-0.7 0.5-1.5z"/><path class="a" d="m368.4 271.7q0 0.7 0 1.4 0.1 0.8 0 1.7 0.1-0.9 0-1.7 0-0.7 0-1.4z"/><path class="a" d="m368.1 267.6q0.1 1.3 0.2 2.7-0.1-1.4-0.2-2.7z"/><path class="a" d="m366.2 258.9q0.5 1.5 0.8 2.9-0.3-1.4-0.8-2.9z"/><path  d="m158.6 234.8q-0.1 0.6-0.3 0.9 0.2-0.3 0.3-0.9z"/><path class="a" d="m21.1 227.6q2.2 5.6 4.7 11.5-2.5-5.9-4.7-11.5z"/><path  d="m351.7 208.9q0.4 1.8 0.8 3.8 0.6 2.7 1.1 5-0.5-2.3-1.1-5-0.4-2-0.8-3.8z"/><path class="a" d="m136.3 188.1q5.3 2.1 10 4-4.8-1.9-10-4z"/><path  d="m342.3 180.5q0.1 0.7 0.1 1.3l2.7 6.3-2.7-6.3q0-0.6-0.1-1.3z"/><path class="a" d="m342 165.3q0.2 4.7 0.2 8.8 0-4.1-0.2-8.8z"/><path class="a" d="m291.2 149.4q0.2 0.7 0.4 1.3 0 0 0 0 0 0 0 0-0.2-0.6-0.4-1.3z"/><path class="a" d="m48.5 141.8q1.7 1.2 3.8 2.7-2.1-1.5-3.8-2.7z"/><path class="a" d="m333.4 100.2q0.9 3.4 1.7 6.8-0.8-3.4-1.6-6.8z"/><path class="a" d="m289.2 136.1c0.6 5.9 1.4 10.5 2 13.3-0.6-2.8-1.4-7.4-2-13.3z"/><path class="a" d="m287.4 119.2c0.6 6.3 1.2 12 1.8 16.9-0.6-4.9-1.2-10.6-1.8-16.9z"/><path class="a" d="m285.5 91.1q0.2 3.1 0.4 6.2 0.1 2.2 0.2 4 0.1 0.9 0.2 1.8 0.5 8.5 1.1 16.1-0.6-7.6-1.1-16.1-0.1-0.9-0.2-1.8-0.1-1.8-0.2-4-0.2-3.1-0.4-6.2z"/><path class="a" d="m330.4 88.7q0.7 2.5 1.4 4.9-0.7-2.4-1.4-4.9z"/><path class="a" d="m328.8 83.6q0.8 2.6 1.6 5.1-0.8-2.5-1.6-5.1z"/><path class="a" d="m324.7 71.7q1.4 3.8 2.7 7.7-1.3-3.9-2.7-7.7z"/><path class="a" d="m318.1 55.3q1.7 4 3.4 8-1.7-4-3.4-8z"/><path class="a" d="m315.7 50.2q1.2 2.5 2.4 5.1-1.2-2.6-2.4-5.1z"/><path class="a" d="m313.3 45.2q1.2 2.4 2.4 5-1.2-2.6-2.4-5z"/><path class="a" d="m305.7 31.5q1.3 2.1 2.6 4.4-1.3-2.3-2.6-4.4z"/><path class="a" d="m301.8 25.6q2 2.8 3.9 5.9-1.9-3.1-3.9-5.9z"/><path class="a" d="m296.9 19.1q0.5 0.6 1 1.2 0.6 0.8 1.3 1.7-0.7-0.9-1.3-1.7-0.5-0.6-1-1.2z"/><path class="a" d="m294.1 16.1q1.3 1.2 2.8 3-1.5-1.8-2.8-3z"/><path class="a" d="m284.9 67c0.1 7.5 0.2 14.2 0.3 17.9q0.2 3.1 0.3 6.2-0.1-3.1-0.3-6.2c-0.1-3.7-0.2-10.4-0.3-17.9z"/><path class="a" d="m284.8 33.7c0 2.9-0.1 6.6-0.1 10.6q0 7.1 0.1 15 0 3.9 0.1 7.7-0.1-3.8-0.1-7.7-0.1-7.9-0.1-15c0-4 0.1-7.7 0.1-10.6z"/><path class="a" d="m285 28.6q-0.1 1.8-0.2 5.1 0.1-3.3 0.2-5.1z"/><path class="a" d="m288.1 13.9c-1.2 1.2-1.9 3.2-2.6 8.4q0 0 0 0.1-0.2 2.2-0.5 5.3 0 0.3 0 0.9 0-0.6 0-0.9 0.3-3.1 0.5-5.3 0-0.1 0-0.1c0.7-5.2 1.4-7.2 2.6-8.4z"/><path class="a" d="m289.1 59.7v4.2q0 1.5 0.1 3.5l0.1 3.2c0.3 13.7 1.5 37.1 2.3 42.5 0 0.9 0.3 3.7 0.5 6.3 0.5 6.1 2.8 24.2 3.6 27.6 0.8 4 1.2 4.4 5.3 5.7 3.6 1.2 6.4 2.6 8 3.7q0.7 0.5 0.8 0.8c0.6 0.8 0.4 1.3-0.8 1.5-0.7 0.1-2.5-0.2-4.1-0.7-4.7-1.4-18.5-4.1-23.5-4.6q-1.2 0-2.6-0.1c-3.4-0.2-7.3-0.2-12.4-0.2q-4.9 0-8.9 0.1c-6.3 0.3-12.5 0.8-17.4 1.5-15.3 2.1-20.2 3.2-31.5 6.7q-4 1.1-5.8 1.8-0.4 0.2-0.9 0.4c-1.7 0.8-0.9 1.5 1.1 3.6q0.2 0.2 0.3 0.3 0.9 0.9 1.6 1.8 2.4 2.8 1.8 3.7c-0.6 1.1-2 0.5-4.8-1.8-8.4-7-31.2-19.3-49.1-26.4q-33.4-13.2-69-19.1c-6.4-1.1-6.4-1.4-6.8 2.7q0 2.2 0 5.1 0 3 0 4.9c0.6 5.9 2.3 11.3 5.2 16l1 1.9q1.1 1.5 1.9 2c0.4 0.3 1.3 0.8 2.4 1.3l11.8 5.9c8.3 4.1 15.2 7.5 15.3 7.5 0.2 0 2.2 0.9 4.6 2 16.1 7.5 47.1 18.8 55.6 20.4 3.5 0.6 4.1 0.9 4.3 1.9q0 0.1 0 0.1 0 0.1 0 0.1 0 0.1 0 0.2 0 1.1-1.3 1.1-0.7 0.1-1.8 0.1-1 0-2.5-0.1c-1.4-0.1-2.7-0.2-3.4-0.3q-0.5 0-0.9 0c-1 0.5-2 3.9-3.5 12.2-1.3 7-2.1 15.3-2.4 23.1 0 4.6 0.1 10.2 0.4 17q0 0.6 0.1 1.3c0.2 1.8 0.7 9.4 1 16.7 1 21.5 2.2 29.6 5.7 38.8q2.4 5.9 5.5 10.8 3 4.6 6.9 8.5 2.9 2.9 6.5 5.6 4.7 3.5 10.6 6.5c2.4 1.2 5.7 2.6 7.4 3.2q2.5 0.7 3.1 1.5 0.3 0.3 0.3 0.7 0 0.1 0 0.3c-0.1 1.3-2.1 1.3-7.1 0.1-8.8-2.2-21.1-10.5-27.7-18.9l-2.2-2.7q-0.3-0.2-0.5-0.2l-0.4 2.1c-0.2 1.4-0.6 4.8-0.9 7.5-1.2 9.9-8.6 36.6-13.9 49.5-0.6 1.4-1.1 2.7-1.3 3.5q-0.1 0.3-0.1 0.5c0.1 0.2 1 0.7 2.2 1 4.5 1.1 10.3 4.3 12.8 7 2.5 2.5 3 4 2 4.1-0.6 0.3-1.8 0-3-0.9q-0.8-0.4-1.8-1c-3.5-2.1-5.5-3.1-8-3.9q-0.3-0.1-0.5-0.1-1.1-0.4-2.4-0.6c-7.7-1.7-14.3-0.6-18.8 3q-0.6 0.5-1.2 1.1-0.5 0.5-1 1-0.5 0.6-0.9 1.2c-0.9 1.3-1.3 1.9-1.3 2.4q0.2 0.5 0.5 1.1 0 0.1 0.1 0.3c2.3 3.6 4.8 8.9 6.3 13.2 2.2 6.3 2.5 8.7 0.8 8.7-0.7 0-1.5-1-2.6-3.4-2.7-5.8-6.4-12.7-9.6-18.1-2.8-4.6-5.3-8.4-6.1-9.1q-0.2-0.2-0.3 0.1c-0.1 0.6 1.3 6.5 3 12.4q0.7 2 0.7 2.9 0 0.8-0.5 1.1c-0.6 0.6-1 0.3-2.4-1.3-2.9-3.3-5.9-12.9-5.9-18.8q0-1.5-0.4-2.4-0.1-0.3-0.3-0.5-0.3-0.3-0.5-0.4-0.2 0-0.3 0.2-0.1 0.4-0.1 1.5 0.1 0.8 0.1 2.3c0.4 4.7 1.4 8.9 3.3 14.8 0.6 1.9 1 3.8 0.8 4.3-0.9 2.2-3.8-0.6-5.8-5.6-1-2.5-1.1-2.6-1.1-0.9-0.1 4.7 2.8 18.1 6.9 31.6 6.6 22.1 17.5 42.1 24.9 46.1 0.9 0.4 1.3 0.6 1.7 0.3q0.2-0.2 0.3-0.4 0.3-0.2 0.5-0.7c0.8-1.2 1-3 1.2-12.5 0.1-8.3 0.3-11.2 0.8-11.3 1.8-0.7 3.1 2.2 3.6 8.1 0.4 2.9 0.6 6.4 0.5 9.8l-0.2 4.6 0.2 0.1 1.7 0.8c4.2 1.7 5.8 2.1 14.4 2.2 1.9 0 3.8 0 6.7 0 11.5 0 23.3-0.5 26.6-1.1 0.4-0.1 3.6-0.3 6.9-0.6 5-0.3 6.2-0.5 6.3-1.2 0.3-1.1-0.1-1.8-7-13-18-29.4-29.5-53.8-33.5-71.1-0.7-2.9-1.1-5.8-1.3-8.2q-0.4-2.5-0.4-4.2-0.1-1.5 0.2-1.9 0.1-0.4 0.2-0.5 0.3-0.2 0.6-0.1 0-0.1 0.1-0.1 0.9-0.2 1.3 1.1 0.3 0.5 0.3 1 0 0.1 0 0.3c1.7 7 6.6 22.7 8.6 27.6 1.9 4.8 5.6 13.4 7.8 18.2q0.8 1.8 1.8 3.6c0.4 0.7 1.5 2.8 2.8 5.3 1.4 2.7 3 5.7 3.5 6.6 0.6 0.9 1.8 3.1 2.8 4.9 1 1.8 2.3 3.9 2.8 4.6 0.5 0.8 1.5 2.5 2.3 3.9 0.8 1.3 3.8 6.3 6.7 11q4.2 6.9 5 9.3 0.2 0.5 0.2 0.6 0 0.1 0 0.1 0 0.1 0 0.1c0 0.9-0.7 3.1-1.6 5-0.8 1.6-1.3 3-1.3 3.3q0.4 0 1.3-0.4 0.7-0.4 1.5-0.8c2-1.1 3.2-1.6 4.2-1.3q0.9 0.2 1.6 1.4 0.1 0.2 0.2 0.5l0.3 0.5q0.4 0.7 0.5 1 0.4 0.1 0.7 0l1.7-1.5q0.8-0.6 1.4-1.1 0 0 0.1 0 0.4-0.3 0.7-0.5 0.6-0.3 0.7-0.4 0.1 0 0.1 0.1 0.1-0.1 0.2-0.1 0.4 0.1 1 0.6 0.7 0.5 1.3 1.6 0.2 0.3 0.3 0.5c0.5 0.7 1 1.1 1.2 1.1q0.3 0 1.2-0.6 1-0.6 2.2-1.6c1.4-1 2.9-1.9 3.7-2.1q0.1 0 0.1 0 0 0 0 0 0 0 0.1 0 0 0 0 0 0.1 0 0.1 0c0.7 0 1.7 0.9 2.8 2.4 1.4 2.1 2 2.6 3.6 1.3q0.2-0.2 0.5-0.4 0.7-0.8 1.8-1.9c1.2-1.4 2.2-2.2 3.3-2.4q0.2-0.1 0.3-0.1 0.1 0 0.1 0 1.5-0.2 3.7 0.8 1 0.4 1.7 0.6 0.4 0.1 0.5 0-0.1-0.6-1-2-0.6-1-1-2l-0.7-0.9v-0.2l-0.5-1-0.1-10.9c-0.2-15-2-34-5.3-55.3q-1.6-10.1-3.7-19.9c-0.5-2-1-4.3-1.6-7.1q-0.8-3.4-1.3-5.6-0.6-2.6-0.7-3.7-0.2-0.9 0.2-1.1 0-0.2 0-0.2c0.7-0.7 1.4-0.4 2.4 1.4q0.7 1.1 1.4 2.9 0 0 0 0c2.2 4.6 3.8 10.8 5.7 20.7 0.7 3.6 1.4 6.8 1.7 7 0.2 0.3 0.6-0.7 0.7-2.1 0.5-3.4 3.9-14.6 5.3-17.4q1-1.9 1.8-1.9 0.7-0.4 1.2 0.4 0 0.1-0.1 0.8 0 0.3 0 0.8c-0.1 1.5-0.6 4-1.6 8.3-5.3 24.3-5.5 25.7-4.1 36.5 1.4 11.4 2.7 29.4 2.7 38.1 0 6.4 0.2 7.1 1.5 10 1 2 1.6 2.8 2.3 2.8q0.4-0.1 1.1-0.4 0.2 0 0.4-0.2 1-0.8 1.9-0.8l0.6-0.3 0.1-0.1 0.6 0.7q1.1 0.7 2.6 2.6 1 1.4 1.8 2.2 0.7 0.6 1.1 0.7 0.3-0.4 0.3-1.5c0-2.2 0.9-3.8 2.1-3.8 0.6 0 2.7 1.1 4.8 2.4 2.1 1.4 3.9 2.5 4 2.5 0.2 0 0.4-1.3 0.3-2.9q0-0.1 0-0.2 0-0.5 0.1-0.9c0-1.3 0.2-1.7 0.8-1.9q0.2-0.1 0.6-0.1 0.1 0 0.2 0.1c0.6 0.1 1 0.6 1.5 1.7q0.9 1.9 2.7 2.5 1 0.4 1.6 0.4 0.1 0 0.1 0 0.2-0.1 0.2-0.3c-0.1-0.5-0.5-1.4-1-2.3-1-2-1-2.4-0.3-3.1 0.8-0.8 1.1-0.7 3 1.2 1.1 1.1 1.8 1.6 2.5 1.8q0.2 0 0.4 0 0.1 0 0.1 0.1 0.5 0 1.1-0.1l2-0.1-0.1-0.1-0.7-0.9-1.3-1.7c-0.8-0.8-1.4-1.8-1.8-2.5q-0.1-0.2-0.1-0.3-0.4-0.6-0.4-0.9 0-0.1 0-0.1 0 0 0-0.1 0-0.8 1.8-4.2c1.3-2.9 3-6.4 3.7-7.3 2.2-2.8 13.2-24.6 16.4-32.6 8.1-19.8 11.4-35.2 13.4-62.3 0.3-4 0.5-6.7 0.7-8.6q0.2-2 0.5-2.5c0.4-1.3 0.9-1.1 1.7-0.2 1.4 1.3 1.6 14.3 0.5 25-2.4 21.8-7.1 39.1-17 60-1.3 2.9-2.4 5.4-3.1 6.5-0.1 0.1-0.3 0.6-0.5 0.9q-3.2 6.3-7.1 13.3c-2.9 5.3-5.4 9.9-5.9 11.1q0 0.1 0 0.2-0.1 0.1-0.1 0.2c0 0.4 0.4 1.1 0.8 1.6 0.7 0.9 3.8 1.4 8.5 1.6 2.3 0.1 5.1 0.1 9 0.1q3.9 0 7.7-0.1c8-0.3 17.1-1 25.9-2 2.9-0.4 5.6-0.7 7.1-0.9 1.5-0.3 2-0.8 2.3-2q0-0.1 0-0.2 0-0.6 0.1-1.1c0.1-1 0.4-1.3 1-1.4q0.5-0.2 1 0.1c0.7 0.1 1 0.6 1.3 1.8 0.8 2.6 2.9 5.7 4.3 6.4q0.2 0 0.3 0 0.1 0.1 0.1 0.1c2 0.3 5-2.1 8.4-6.5 10.6-14 19.4-41 20.9-64.2q0-1 0.1-2l0.2-7q0-0.2-0.1-0.3 0-0.2 0-0.4l-0.7 3.6c-0.4 3.6-1.2 6.9-2.1 9.3q-0.5 1.7-1.1 2.5-0.8 1.3-1.4 1.3-0.3 0-0.5-0.3c-0.3 0-0.5-0.1-0.5-0.7-0.1-0.6 0-1.7 0.1-3.5q0.2-2.1 0.4-3.7c0.1-1.9 0.3-3.8 0.5-5.1 0.6-4.7 0.7-14.6 0.1-14.9q-0.3 0-0.7 0.5-0.9 1.3-1.3 6.7c-0.5 6.5-1.7 12.9-3.1 16.7q-0.2 0.5-0.4 0.9c-0.7 1.6-1.3 2.6-2 2.6q-0.8 0-1-0.6c-0.3-0.8-0.2-2.5 0.4-6 0.5-2.9 1-7.5 1.1-10.4l0.3-4.7q-0.2 0.1-0.4 0.5l-1.8 3.4c-5.3 10.6-11.2 27.1-14.7 41.3-1.7 6.9-2.1 8-3.1 8q0 0 0 0-0.4 0-0.6-0.2-0.1 0-0.1-0.1-0.2-0.2-0.4-0.9-0.3-1.2-0.2-3.6c0.2-6 2.6-15.3 7.5-28.3l2.1-5.9c0.2-0.8-0.3-1.4-2-3.2l-3.8-3.7c-6.9-6.6-12-9.6-17.5-10q-0.5 0-1.1 0-0.7 0-1.5 0.1-1 0.1-2.1 0.3c-3.6 0.7-8.7 2.7-10.3 4.2-0.8 0.7-1 0.8-1.6 0.1q-0.3-0.1-0.3-0.5c-0.6-0.9-0.3-1.3 2.2-3.7q0.1-0.1 0.3-0.2 0-0.1 0-0.1 0.1 0 0.1-0.1c2.8-2.5 5.5-3.7 10-4.4 1.2-0.2 2.1-0.6 2.1-0.9 0-0.3-1.8-4.1-4.1-8.4-8.6-16.7-13.1-29.9-14.6-43-0.3-3.2-0.8-6-1-6.1-0.1-0.3-2.4 1.3-5 3.4-2.5 2.1-5.6 4.5-6.8 5.3-1.2 0.8-3.1 2.2-4.2 3-3.3 2.5-12.1 7.2-16.3 8.6-3.3 1.1-4 1.2-4.4 0.6q-0.1-0.3-0.2-0.5-0.2-0.4-0.1-0.6 0 0 0.1-0.1c0.1-0.6 0.3-1 0.8-1 0.5 0 10.4-5.9 15-9 7.7-5.1 16.8-12.6 23.4-18.9q2.9-3.1 5.7-6c2.7-3.3 6.2-7.8 8.3-10.6q0.7-1.3 1.5-2.3 0.1-0.2 0.1-0.3c0.2-0.5 0.8-1.5 1.3-2.3l0.9-1.2q0-0.1 0.1-0.2l-2.7-0.3c-3.9-0.5-8.5-2.9-11.3-6.1-3.9-4.2-5.7-9.3-5.7-16q0-0.1 0-0.4 0 0 0-0.1 0-0.1 0-0.3 0-0.3 0-0.5c0.2-5.2 1.4-9.2 3.7-12.3q0.7-1 1.5-1.8 0.1-0.1 0.1-0.1 0.1-0.1 0.1-0.1c3.5-3.9 7.4-5.5 12.8-5.6 1.6 0 2.9-0.2 3.1-0.4q0 0 0-0.1c0-0.3-0.6-2-1.4-4q-5.7-15.1-8.4-28.7c-1.6-7.7-3.5-15.8-5.3-21.1-1.9-5.7-6.2-15-8.7-18.4-1-1.4-1.9-2.8-1.9-2.9 0-0.2-1.3-2.1-3-4.2q-2.9-3.8-2.9-5.1-0.2-0.9 0.7-0.9 0.1 0 0.1 0 0.1 0 0.1 0 0 0 0.1 0.1 0.1-0.1 0.2-0.1c1 0 2.4 1.3 5.2 4.3l4 4.2-0.1-6.6-0.1-5.1q-0.1-2.2-0.2-4.4c-0.7-13.8-2.8-31.4-5.2-43.8q-0.2-1.1-0.4-2.1c-1.6-7.6-5.5-22.1-8.2-30.6-3-9.1-3.1-9.2-9.5-13.6-7.3-4.9-13.4-7.1-21.1-7.8l-2-0.1zm33.9 144.3c6.7 0.1 13.2 4.1 16.4 11.1 2 4.3 2 11-0.1 15.4-1.7 3.7-5.3 7.2-8.9 8.8-3.3 1.5-9 1.9-11.8 0.9-5.7-2.2-9.5-5.6-11.9-10.8-1.9-4.1-1.9-10.4-0.2-14.5 1.9-4.3 4.7-7.1 8.6-9.1q3.9-1.9 7.9-1.8zm-303 1.5q-1.4 0-1.5 0.2c-0.3 0.4 1.7 6 6.6 18.5 2.9 7.6 4.7 11.9 10.8 25.7 4.4 10.1 14.1 29.8 17 34.6 1.3 2.1 2.5 4.1 2.5 4.3q0 0 0.1 0.2 0.9 1.6 1.5 2.6 0.2 0.3 0.4 0.5l0.9 1.5 1 1.4h4.6l3.4-0.1c8.4-0.4 37.4 0.4 54.8 1.5 0.6 0 1 0 1.6 0.1 6.3 0.3 8.1 0.5 8.7 1.2q0.2 0.1 0.3 0.2c0.5 0.8-0.1 3.1-2.2 10.2-5.5 18-11.9 40.2-13.3 46.1q-0.3 1.4-0.2 1.6c0.3 0.2 2.6 1.1 5.3 2 17.1 6 27.4 9.9 29.7 11.4q0.2 0.2 0.4 0.3l0.7 0.4 0.4 1.4q0.4 0.7 0.7 1.5c0.5 1.5 1 2.8 1.2 2.8 0.2 0 1.3-2.7 2.5-5.9 2-5.9 3.8-12.2 3.5-12.5 0-0.1-4.8-2.4-10.5-5.2-5.7-2.7-10.5-5-10.6-5.2-0.7-0.7 0-3.2 1.6-5.8 1.1-1.6 2.1-3.3 2.3-3.8 0.4-0.9 4-6.1 10.2-14.7 2.3-3.1 4.5-6.2 5-6.8 0.4-0.7 2-2.8 3.4-4.9l2-2.8q0.5-0.8 0.6-1.1l-1.1-3.4c-2.1-7.6-3.8-18.5-3.8-26.5-0.1-2.2-0.3-8.4-0.6-13.7-0.3-5.2-0.7-12.5-0.9-16.3l-0.3-6.2-0.1-0.5-3.1-1.6c-1.7-0.8-6.1-2.8-9.9-4.4-30-12.5-57.6-20.3-89.7-25.4-10.4-1.6-28.2-3.3-34.8-3.4q-0.6 0-1.1 0zm195.1 4.4q0.5 0 1.1 0.1c3.1 0 4.4 0.3 6.8 1.4 2.6 1.3 5 3.3 6.9 5.7q1 1.3 1.7 2.6 0.2 0.5 0.5 0.9c1.1 2.6 1.4 3.8 1.4 7.7-0.1 4-0.3 5.1-1.7 7.9-1.7 3.7-5.3 7-9.2 8.9-3.9 1.8-10.9 1.8-14.8 0-4.8-2.3-8.3-6.3-10-10.9q-0.3-0.6-0.4-1.3c-0.9-3-0.9-6.2 0-9.3 1.6-5.7 4.8-9.6 10.1-12.2 2.5-1.2 3.7-1.4 7.4-1.4q0.1 0 0.2-0.1zm68.6 22.9q3.1 0.2 3.2 1.8c0 1.4-1.5 4-2.9 4.9q-0.6 0.5-1.2 0.7-0.1 0-0.2 0-0.1 0-0.1 0-0.2 0.1-0.3 0.1c-0.7 0-1.6-0.3-2.7-0.9-1-0.4-2.2-1.5-2.7-2.4-0.5-0.9-0.7-1.3-0.5-1.8q0 0 0-0.1 0.1-0.3 0.6-0.7 0 0 0.1 0c0.7-0.7 2.2-1.2 4.3-1.4q1.3-0.2 2.4-0.2zm-0.6 14.6q0.9 0 1.8 0.2c1.2 0.3 6.3 2.3 11.3 4.6 5.2 2.4 8.4 3.8 10.9 4.3q2.1 0.2 4.1 0 1.4-0.3 3.1-1c4.2-1.7 4.2-1.7 4.5-0.7 0.5 1.2-1.6 3.5-4.2 4.8-1.5 0.7-2.2 1.2-2.6 1.9q-0.3 0.9-0.5 2.2-0.1 0.7-0.2 1.5c-0.5 4.6-2.1 11.2-5 20.6-4.5 14.7-10.5 27-16.7 33.5-6 6.5-11.8 8.4-18.4 5.9q-0.9-0.4-1.7-0.8-0.9-0.5-1.7-1c-11.4-7.6-22.1-30.3-25.2-55.1q-0.4-3-0.9-4.2 0-0.1 0-0.1-0.1-0.3-0.2-0.4 0 0 0 0-0.2-0.4-0.4-0.5c-0.4-0.3-1.3-0.9-2.2-1.7q-0.5-0.4-0.9-0.8c-1.6-1.4-2-2.2-1.8-2.9q0 0 0-0.1 0-0.1 0.1-0.2c0.1-0.3 0.3-0.5 0.7-0.5q0.4 0.1 0.9 0.2 0.1 0.1 0.3 0.1c0.8 0.2 2 0.7 4 1.5 2.7 1 4.7 1.4 7.7 1.4 4.8 0 7.1-0.9 19.3-7.3q0.6-0.2 1.1-0.5 0.7-0.4 1.4-0.7c6.1-3.2 9-4.2 11.4-4.2zm-92.1 13.4c3.9 0 7.9 1.3 11.4 3.5q3.6 2.1 6 5.5 1.4 1.8 2.3 3.8c0.8 1.7 1.1 2.8 1.3 4.6q0.9 4.2 0.1 8.3c-0.1 2.5-0.5 3.4-1.8 6-3.5 7-9.8 11.2-18.1 12.1-1.4 0.1-3.6 0-4.9-0.2q-3.9-0.8-7.1-2.5-1.2-0.6-1.6-0.9-0.4-0.3-0.8-0.7-4.3-3.1-6.6-8.2-0.1 0-0.1-0.1c-0.6-1.2-1-2.1-1.2-3.2q-0.4-1.3-0.8-2.8c-0.5-2.5-0.5-4 0-6.4 2-10 8.5-16.5 18.5-18.4q1.7-0.4 3.4-0.4z"/><path class="b" d="m356.8 255.6c-2 0-4.3 0.3-6.1 1.1-3.2 1.4-6.1 4.6-7.4 8.2-1.5 3.9-1.4 10.2 0.1 14.6q0.5 1.2 1 2.2c1.6 2.9 4.3 5.8 6.8 7.1 2 1 6.2 1.1 8.2 0.2 2.5-1.2 5-11.7 4.4-18.9-0.4-6-2.1-12.8-3.3-13.7-0.8-0.5-2.1-0.9-3.7-0.8zm-165.7 9.3q-1.4 0-2.7 0.3c-8 1.6-13.3 6.8-14.9 14.8-0.4 1.9-0.4 3.1 0 5.2q0.3 1.2 0.6 2.3c0.2 0.8 0.5 1.5 1 2.5q0 0.1 0 0.2 2 4 5.4 6.5 0.3 0.3 0.6 0.6 0.4 0.2 1.3 0.7 2.6 1.3 5.7 2c1.1 0.2 2.9 0.2 4 0.2 6.7-0.8 11.7-4.2 14.6-9.8 1-2.1 1.3-2.8 1.4-4.8q0.6-3.3-0.1-6.7c-0.1-1.5-0.4-2.3-1-3.7q-0.8-1.6-1.9-3-1.9-2.8-4.8-4.5c-2.8-1.7-6-2.8-9.2-2.8z"/><path class="c" d="m319.9 209.1c-3.1 0-6.2 3.1-6.2 6.3q0 0.1 0 0.1c0.1 1.3 0.7 2.9 1.6 4.1q0 0 0.1 0.1 0.2 0.2 0.5 0.5 0.5 0.5 1 0.9c1.8 1 4.9 0.8 6.7-0.5 2.2-1.6 3.1-4.6 2-7.2-0.9-2.2-3.7-4.3-5.7-4.3zm-104 5.6q-0.3 0-0.5 0c-4.5 0.5-6.9 4.9-4.9 9q0.9 1.5 2.2 2.6c2.1 1.4 5.1 1.3 7.4-0.6 1.5-1.3 1.8-2 2.1-4.4q0-0.5 0.1-1-0.2-1.4-0.6-2.5-0.4-0.5-1.2-1.2-1.1-1.2-2-1.6-1.1-0.3-2.6-0.3z"/><path class="d" d="m275.9 274.8c-9.1 0.1-17.1 5.4-24.6 13.4 4.5 14.5 11.1 26.2 18 31.3q0.7 0.6 1.5 0.9 0.8 0.5 1.6 0.8c5.9 2.6 11.2 0.8 16.7-5.8 4.7-5.6 9.4-15.3 13.2-27.2-9.8-9.6-18.5-13.5-26.4-13.4z"/></svg>